/* XPM */
static char * xmcd_xpm[] = {
"32 32 3 1",
" 	c #0000AAAABEBE",
".	c #FFFFFFFFFFFF",
"X	c #0000FFFFFFFF",
"                                ",
"                                ",
"                                ",
"                                ",
"                          ...   ",
"                           ..   ",
"                          ..    ",
"   .. .... .. ..   ...  ....    ",
"    ...  .. .. .. . .. .. ..    ",
"    ..   .. .. ....   ..  .     ",
"    ... ..  .  . ..   .. ..     ",
"   . .. .. .. .. .. .... ..     ",
"  .. ..... .. ... ...  .. ..    ",
"                                ",
"                                ",
"          XXXXXXXXXXXX          ",
"      XXXXXXXXXXXXXXXXXXXX      ",
"    XXXXXXXXXXXXXXXXXXXXXXXX    ",
"  XXXXXXXXXXXXXXXXXXXXXXXXXXXX  ",
" XXXXXXXXXXXXXXXXXXXXXXXXXXXXXX ",
" XXXXXXXXXXXXXX   XXXXXXXXXXXXX ",
" XXXXXXXXXXXXXX   XXXXXXXXXXXXX ",
" XXXXXXXXXXXXXXXXXXXXXXXXXXXXXX ",
"  XXXXXXXXXXXXXXXXXXXXXXXXXXXX  ",
"    XXXXXXXXXXXXXXXXXXXXXXXX    ",
"      XXXXXXXXXXXXXXXXXXXX      ",
"          XXXXXXXXXXXX          ",
"                                ",
"                                ",
"                                ",
"                                ",
"                                "};
